<svg width="41" height="40" viewBox="0 0 41 40" fill="none" xmlns="http://www.w3.org/2000/svg">
<path d="M25.5 37.9166H15.5C6.44998 37.9166 2.58331 34.0499 2.58331 24.9999V14.9999C2.58331 5.94992 6.44998 2.08325 15.5 2.08325H25.5C34.55 2.08325 38.4166 5.94992 38.4166 14.9999V24.9999C38.4166 34.0499 34.55 37.9166 25.5 37.9166ZM15.5 4.58325C7.81665 4.58325 5.08331 7.31659 5.08331 14.9999V24.9999C5.08331 32.6833 7.81665 35.4166 15.5 35.4166H25.5C33.1833 35.4166 35.9166 32.6833 35.9166 24.9999V14.9999C35.9166 7.31659 33.1833 4.58325 25.5 4.58325H15.5Z" fill="#292D32"/>
<path d="M14.9667 25.55C14.2667 25.55 13.6167 25.3833 13.05 25.0667C11.6667 24.2833 10.9167 22.7333 10.9167 20.7V4.06665C10.9167 3.38332 11.4834 2.81665 12.1667 2.81665C12.85 2.81665 13.4167 3.38332 13.4167 4.06665V20.7C13.4167 21.7833 13.7334 22.5833 14.2834 22.8833C14.8667 23.2166 15.7667 23.05 16.75 22.4666L18.95 21.15C19.85 20.6166 21.1334 20.6166 22.0334 21.15L24.2334 22.4666C25.2334 23.0666 26.1334 23.2166 26.7 22.8833C27.25 22.5666 27.5667 21.7666 27.5667 20.7V4.06665C27.5667 3.38332 28.1334 2.81665 28.8167 2.81665C29.5 2.81665 30.0667 3.38332 30.0667 4.06665V20.7C30.0667 22.7333 29.3167 24.2833 27.9333 25.0667C26.55 25.85 24.7334 25.6833 22.95 24.6166L20.75 23.3C20.65 23.2333 20.3334 23.2333 20.2334 23.3L18.0334 24.6166C17 25.2333 15.9334 25.55 14.9667 25.55Z" fill="#292D32"/>
<path d="M25.5 37.9166H15.5C6.44998 37.9166 2.58331 34.0499 2.58331 24.9999V14.9999C2.58331 5.94992 6.44998 2.08325 15.5 2.08325H25.5C34.55 2.08325 38.4166 5.94992 38.4166 14.9999V24.9999C38.4166 34.0499 34.55 37.9166 25.5 37.9166ZM15.5 4.58325C7.81665 4.58325 5.08331 7.31659 5.08331 14.9999V24.9999C5.08331 32.6833 7.81665 35.4166 15.5 35.4166H25.5C33.1833 35.4166 35.9166 32.6833 35.9166 24.9999V14.9999C35.9166 7.31659 33.1833 4.58325 25.5 4.58325H15.5Z" fill="#292D32"/>
<path d="M14.9667 25.55C14.2667 25.55 13.6167 25.3833 13.05 25.0667C11.6667 24.2833 10.9167 22.7333 10.9167 20.7V4.06665C10.9167 3.38332 11.4834 2.81665 12.1667 2.81665C12.85 2.81665 13.4167 3.38332 13.4167 4.06665V20.7C13.4167 21.7833 13.7334 22.5833 14.2834 22.8833C14.8667 23.2166 15.7667 23.05 16.75 22.4666L18.95 21.15C19.85 20.6166 21.1334 20.6166 22.0334 21.15L24.2334 22.4666C25.2334 23.0666 26.1334 23.2166 26.7 22.8833C27.25 22.5666 27.5667 21.7666 27.5667 20.7V4.06665C27.5667 3.38332 28.1334 2.81665 28.8167 2.81665C29.5 2.81665 30.0667 3.38332 30.0667 4.06665V20.7C30.0667 22.7333 29.3167 24.2833 27.9333 25.0667C26.55 25.85 24.7334 25.6833 22.95 24.6166L20.75 23.3C20.65 23.2333 20.3334 23.2333 20.2334 23.3L18.0334 24.6166C17 25.2333 15.9334 25.55 14.9667 25.55Z" fill="#292D32"/>
</svg>
