<svg width="33" height="32" viewBox="0 0 33 32" fill="none" xmlns="http://www.w3.org/2000/svg">
<path d="M28.5 30.3333H4.5C3.95333 30.3333 3.5 29.8799 3.5 29.3333C3.5 28.7866 3.95333 28.3333 4.5 28.3333H28.5C29.0467 28.3333 29.5 28.7866 29.5 29.3333C29.5 29.8799 29.0467 30.3333 28.5 30.3333Z" fill="#292D32"/>
<path d="M7.96663 26.3333H5.83333C4.55333 26.3333 3.5 25.28 3.5 24V12.5067C3.5 11.2267 4.55333 10.1733 5.83333 10.1733H7.96663C9.24663 10.1733 10.3 11.2267 10.3 12.5067V24C10.3 25.28 9.24663 26.3333 7.96663 26.3333ZM5.83333 12.16C5.64667 12.16 5.5 12.3067 5.5 12.4933V24C5.5 24.1867 5.64667 24.3333 5.83333 24.3333H7.96663C8.1533 24.3333 8.29997 24.1867 8.29997 24V12.5067C8.29997 12.32 8.1533 12.1733 7.96663 12.1733H5.83333V12.16Z" fill="#292D32"/>
<path d="M17.5669 26.3333H15.4336C14.1536 26.3333 13.1003 25.2799 13.1003 23.9999V8.25326C13.1003 6.97326 14.1536 5.91992 15.4336 5.91992H17.5669C18.8469 5.91992 19.9002 6.97326 19.9002 8.25326V23.9999C19.9002 25.2799 18.8469 26.3333 17.5669 26.3333ZM15.4336 7.91992C15.2469 7.91992 15.1003 8.06659 15.1003 8.25326V23.9999C15.1003 24.1866 15.2469 24.3333 15.4336 24.3333H17.5669C17.7536 24.3333 17.9002 24.1866 17.9002 23.9999V8.25326C17.9002 8.06659 17.7536 7.91992 17.5669 7.91992H15.4336Z" fill="#292D32"/>
<path d="M27.1665 26.3334H25.0332C23.7532 26.3334 22.6999 25.2801 22.6999 24.0001V4.00008C22.6999 2.72008 23.7532 1.66675 25.0332 1.66675H27.1665C28.4465 1.66675 29.4998 2.72008 29.4998 4.00008V24.0001C29.4998 25.2801 28.4465 26.3334 27.1665 26.3334ZM25.0332 3.66675C24.8465 3.66675 24.6999 3.81341 24.6999 4.00008V24.0001C24.6999 24.1867 24.8465 24.3334 25.0332 24.3334H27.1665C27.3532 24.3334 27.4998 24.1867 27.4998 24.0001V4.00008C27.4998 3.81341 27.3532 3.66675 27.1665 3.66675H25.0332Z" fill="#292D32"/>
</svg>
