<svg width="32" height="32" viewBox="0 0 32 32" fill="none" xmlns="http://www.w3.org/2000/svg">
<path d="M21.5867 2.66675H10.4133C5.56 2.66675 2.66667 5.56008 2.66667 10.4134V21.5734C2.66667 26.4401 5.56 29.3334 10.4133 29.3334H21.5733C26.4267 29.3334 29.32 26.4401 29.32 21.5868V10.4134C29.3333 5.56008 26.44 2.66675 21.5867 2.66675ZM8.62667 10.2934C9.01334 9.90675 9.65334 9.90675 10.04 10.2934C10.9867 11.2401 12.5333 11.2401 13.48 10.2934C13.8667 9.90675 14.5067 9.90675 14.8933 10.2934C15.28 10.6801 15.28 11.3201 14.8933 11.7067C14.0267 12.5734 12.8933 13.0001 11.76 13.0001C10.6267 13.0001 9.49334 12.5734 8.62667 11.7067C8.24001 11.3067 8.24001 10.6801 8.62667 10.2934ZM16 25.0401C12.4133 25.0401 9.49334 22.1201 9.49334 18.5334C9.49334 17.6001 10.2533 16.8267 11.1867 16.8267H20.7867C21.72 16.8267 22.48 17.5867 22.48 18.5334C22.5067 22.1201 19.5867 25.0401 16 25.0401ZM23.3733 11.7067C22.5067 12.5734 21.3733 13.0001 20.24 13.0001C19.1067 13.0001 17.9733 12.5734 17.1067 11.7067C16.72 11.3201 16.72 10.6801 17.1067 10.2934C17.4933 9.90675 18.1333 9.90675 18.52 10.2934C19.4667 11.2401 21.0133 11.2401 21.96 10.2934C22.3467 9.90675 22.9867 9.90675 23.3733 10.2934C23.76 10.6801 23.76 11.3067 23.3733 11.7067Z" fill="#008080"/>
</svg>
