<svg width="32" height="32" viewBox="0 0 32 32" fill="none" xmlns="http://www.w3.org/2000/svg">
<path d="M3.44 25.3468L3.41334 25.3735C3.05334 24.5868 2.82667 23.6935 2.73334 22.7068C2.82667 23.6801 3.08 24.5601 3.44 25.3468Z" fill="#008080"/>
<path d="M12 13.8401C13.7526 13.8401 15.1733 12.4193 15.1733 10.6667C15.1733 8.91416 13.7526 7.49341 12 7.49341C10.2474 7.49341 8.82666 8.91416 8.82666 10.6667C8.82666 12.4193 10.2474 13.8401 12 13.8401Z" fill="#008080"/>
<path d="M21.5867 2.66675H10.4133C5.55999 2.66675 2.66666 5.56008 2.66666 10.4134V21.5868C2.66666 23.0401 2.91999 24.3067 3.41332 25.3734C4.55999 27.9067 7.01332 29.3334 10.4133 29.3334H21.5867C26.44 29.3334 29.3333 26.4401 29.3333 21.5868V18.5334V10.4134C29.3333 5.56008 26.44 2.66675 21.5867 2.66675ZM27.16 16.6667C26.12 15.7734 24.44 15.7734 23.4 16.6667L17.8533 21.4267C16.8133 22.3201 15.1333 22.3201 14.0933 21.4267L13.64 21.0534C12.6933 20.2267 11.1867 20.1467 10.12 20.8667L5.13332 24.2134C4.83999 23.4667 4.66666 22.6001 4.66666 21.5868V10.4134C4.66666 6.65341 6.65332 4.66675 10.4133 4.66675H21.5867C25.3467 4.66675 27.3333 6.65341 27.3333 10.4134V16.8134L27.16 16.6667Z" fill="#008080"/>
</svg>
