<svg width="33" height="32" viewBox="0 0 33 32" fill="none" xmlns="http://www.w3.org/2000/svg">
<path d="M16.5 28.8666C16.0867 28.8666 15.6867 28.8133 15.3533 28.6933C10.26 26.9466 2.16667 20.7466 2.16667 11.5866C2.16667 6.91997 5.94 3.1333 10.58 3.1333C12.8333 3.1333 14.94 4.0133 16.5 5.58663C18.06 4.0133 20.1667 3.1333 22.42 3.1333C27.06 3.1333 30.8333 6.9333 30.8333 11.5866C30.8333 20.76 22.74 26.9466 17.6467 28.6933C17.3133 28.8133 16.9133 28.8666 16.5 28.8666ZM10.58 5.1333C7.04667 5.1333 4.16667 8.02663 4.16667 11.5866C4.16667 20.6933 12.9267 25.76 16.0067 26.8133C16.2467 26.8933 16.7667 26.8933 17.0067 26.8133C20.0733 25.76 28.8467 20.7066 28.8467 11.5866C28.8467 8.02663 25.9667 5.1333 22.4333 5.1333C20.4067 5.1333 18.5267 6.07997 17.3133 7.71997C16.94 8.22663 16.0867 8.22663 15.7133 7.71997C14.4733 6.06663 12.6067 5.1333 10.58 5.1333Z" fill="#292D32"/>
</svg>
