<svg width="40" height="40" viewBox="0 0 40 40" fill="none" xmlns="http://www.w3.org/2000/svg">
<path d="M34.7667 13.9501L23.2167 4.71674C21.4333 3.28341 18.55 3.28341 16.7833 4.70007L5.23333 13.9501C3.93333 14.9834 3.09999 17.1667 3.38333 18.8001L5.59999 32.0667C5.99999 34.4334 8.26666 36.3501 10.6667 36.3501H29.3333C31.7167 36.3501 34 34.4167 34.4 32.0667L36.6167 18.8001C36.8833 17.1667 36.05 14.9834 34.7667 13.9501ZM20 25.8334C17.7 25.8334 15.8333 23.9667 15.8333 21.6667C15.8333 19.3667 17.7 17.5001 20 17.5001C22.3 17.5001 24.1667 19.3667 24.1667 21.6667C24.1667 23.9667 22.3 25.8334 20 25.8334Z" fill="#008080"/>
</svg>
