<svg width="33" height="32" viewBox="0 0 33 32" fill="none" xmlns="http://www.w3.org/2000/svg">
<path d="M16.5 30.4134C15.58 30.4134 14.7133 29.9467 14.1 29.1334L12.1 26.4667C12.06 26.4134 11.9 26.3467 11.8333 26.3334H11.1667C5.60666 26.3334 2.16666 24.8267 2.16666 17.3334V10.6667C2.16666 4.77341 5.27332 1.66675 11.1667 1.66675H21.8333C27.7267 1.66675 30.8333 4.77341 30.8333 10.6667V17.3334C30.8333 23.2267 27.7267 26.3334 21.8333 26.3334H21.1667C21.06 26.3334 20.9667 26.3867 20.9 26.4667L18.9 29.1334C18.2867 29.9467 17.42 30.4134 16.5 30.4134ZM11.1667 3.66675C6.39332 3.66675 4.16666 5.89341 4.16666 10.6667V17.3334C4.16666 23.3601 6.23332 24.3334 11.1667 24.3334H11.8333C12.5133 24.3334 13.2867 24.7201 13.7 25.2668L15.7 27.9334C16.1667 28.5467 16.8333 28.5467 17.3 27.9334L19.3 25.2668C19.74 24.6801 20.4333 24.3334 21.1667 24.3334H21.8333C26.6067 24.3334 28.8333 22.1067 28.8333 17.3334V10.6667C28.8333 5.89341 26.6067 3.66675 21.8333 3.66675H11.1667Z" fill="#292D32"/>
<path d="M16.5 15.9999C15.7533 15.9999 15.1667 15.3999 15.1667 14.6666C15.1667 13.9333 15.7667 13.3333 16.5 13.3333C17.2333 13.3333 17.8333 13.9333 17.8333 14.6666C17.8333 15.3999 17.2467 15.9999 16.5 15.9999Z" fill="#292D32"/>
<path d="M21.8333 15.9999C21.0867 15.9999 20.5 15.3999 20.5 14.6666C20.5 13.9333 21.1 13.3333 21.8333 13.3333C22.5667 13.3333 23.1667 13.9333 23.1667 14.6666C23.1667 15.3999 22.58 15.9999 21.8333 15.9999Z" fill="#292D32"/>
<path d="M11.1667 15.9999C10.42 15.9999 9.83334 15.3999 9.83334 14.6666C9.83334 13.9333 10.4333 13.3333 11.1667 13.3333C11.9 13.3333 12.5 13.9333 12.5 14.6666C12.5 15.3999 11.9133 15.9999 11.1667 15.9999Z" fill="#292D32"/>
</svg>
