<svg width="33" height="32" viewBox="0 0 33 32" fill="none" xmlns="http://www.w3.org/2000/svg">
<path d="M13.8333 25.3333C13.8333 26.8 15.0333 28 16.5 28C17.9666 28 19.1666 26.8 19.1666 25.3333C19.1666 23.8667 17.9666 22.6667 16.5 22.6667C15.0333 22.6667 13.8333 23.8667 13.8333 25.3333Z" stroke="#292D32" stroke-width="1.5"/>
<path d="M13.8333 6.66658C13.8333 8.13325 15.0333 9.33325 16.5 9.33325C17.9666 9.33325 19.1666 8.13325 19.1666 6.66658C19.1666 5.19992 17.9666 3.99992 16.5 3.99992C15.0333 3.99992 13.8333 5.19992 13.8333 6.66658Z" stroke="#292D32" stroke-width="1.5"/>
<path d="M13.8333 16.0001C13.8333 17.4667 15.0333 18.6667 16.5 18.6667C17.9666 18.6667 19.1666 17.4667 19.1666 16.0001C19.1666 14.5334 17.9666 13.3334 16.5 13.3334C15.0333 13.3334 13.8333 14.5334 13.8333 16.0001Z" stroke="#292D32" stroke-width="1.5"/>
</svg>
