<svg width="32" height="32" viewBox="0 0 32 32" fill="none" xmlns="http://www.w3.org/2000/svg">
<path d="M13.3333 25.3333C13.3333 26.8 14.5333 28 16 28C17.4667 28 18.6667 26.8 18.6667 25.3333C18.6667 23.8667 17.4667 22.6667 16 22.6667C14.5333 22.6667 13.3333 23.8667 13.3333 25.3333Z" stroke="#292D32" stroke-width="1.5"/>
<path d="M13.3333 6.66658C13.3333 8.13325 14.5333 9.33325 16 9.33325C17.4667 9.33325 18.6667 8.13325 18.6667 6.66658C18.6667 5.19992 17.4667 3.99992 16 3.99992C14.5333 3.99992 13.3333 5.19992 13.3333 6.66658Z" stroke="#292D32" stroke-width="1.5"/>
<path d="M13.3333 16.0001C13.3333 17.4667 14.5333 18.6667 16 18.6667C17.4667 18.6667 18.6667 17.4667 18.6667 16.0001C18.6667 14.5334 17.4667 13.3334 16 13.3334C14.5333 13.3334 13.3333 14.5334 13.3333 16.0001Z" stroke="#292D32" stroke-width="1.5"/>
</svg>
