<svg width="32" height="32" viewBox="0 0 32 32" fill="none" xmlns="http://www.w3.org/2000/svg">
<path d="M27.8533 6.9066V21.9733C27.8533 24.6133 25.7067 26.7599 23.0667 26.7599C20.44 26.7599 18.28 24.6133 18.28 21.9733C18.28 19.3466 20.44 17.1999 23.0667 17.1999C24.1867 17.1999 25.1867 17.5866 26 18.2266V10.2933L13.72 13.7866V24.5466C13.72 27.1866 11.56 29.3333 8.93333 29.3333C6.29333 29.3333 4.14667 27.1866 4.14667 24.5466C4.14667 21.9199 6.29333 19.7733 8.93333 19.7733C10.04 19.7733 11.04 20.1599 11.8533 20.7866V8.99993C11.8533 7.03993 13.04 5.51993 14.92 5.01326L22.6267 2.9066C24.1867 2.47993 25.5067 2.6266 26.44 3.3466C27.3867 4.05326 27.8533 5.25326 27.8533 6.9066Z" fill="#008080"/>
</svg>
