<svg width="41" height="40" viewBox="0 0 41 40" fill="none" xmlns="http://www.w3.org/2000/svg">
<path d="M30.4997 13.1834C30.4497 13.1834 30.4163 13.1834 30.3663 13.1834H30.283C27.133 13.0834 24.783 10.6501 24.783 7.6501C24.783 4.58343 27.283 2.1001 30.333 2.1001C33.383 2.1001 35.883 4.6001 35.883 7.6501C35.8664 10.6668 33.5163 13.1001 30.5164 13.2001C30.5164 13.1834 30.5164 13.1834 30.4997 13.1834ZM30.333 4.58344C28.6497 4.58344 27.283 5.95011 27.283 7.63344C27.283 9.28344 28.5664 10.6168 30.2164 10.6834C30.233 10.6668 30.3664 10.6668 30.5164 10.6834C32.133 10.6001 33.383 9.26678 33.3997 7.63344C33.3997 5.95011 32.033 4.58344 30.333 4.58344Z" fill="#292D32"/>
<path d="M30.5167 25.4668C29.8667 25.4668 29.2167 25.4167 28.5667 25.3001C27.8834 25.1834 27.4334 24.5334 27.55 23.8501C27.6667 23.1667 28.3167 22.7167 29 22.8334C31.05 23.1834 33.2167 22.8001 34.6667 21.8334C35.45 21.3168 35.8667 20.6667 35.8667 20.0167C35.8667 19.3667 35.4334 18.7334 34.6667 18.2167C33.2167 17.2501 31.0167 16.8667 28.95 17.2334C28.2667 17.3667 27.6167 16.9001 27.5 16.2167C27.3834 15.5334 27.8334 14.8834 28.5167 14.7668C31.2334 14.2834 34.05 14.8001 36.05 16.1334C37.5167 17.1167 38.3667 18.5167 38.3667 20.0167C38.3667 21.5001 37.5334 22.9168 36.05 23.9168C34.5334 24.9168 32.5667 25.4668 30.5167 25.4668Z" fill="#292D32"/>
<path d="M10.45 13.1833C10.4333 13.1833 10.4167 13.1833 10.4167 13.1833C7.41666 13.0833 5.06665 10.6499 5.04999 7.64991C5.04999 4.58325 7.54999 2.08325 10.6 2.08325C13.65 2.08325 16.15 4.58325 16.15 7.63326C16.15 10.6499 13.8 13.0833 10.8 13.1833L10.45 11.9333L10.5667 13.1833C10.5333 13.1833 10.4833 13.1833 10.45 13.1833ZM10.6167 10.6833C10.7167 10.6833 10.8 10.6832 10.9 10.6999C12.3833 10.6332 13.6833 9.29991 13.6833 7.64991C13.6833 5.96658 12.3167 4.59991 10.6333 4.59991C8.94999 4.59991 7.58332 5.96658 7.58332 7.64991C7.58332 9.28325 8.84999 10.5999 10.4667 10.6999C10.4833 10.6832 10.55 10.6833 10.6167 10.6833Z" fill="#292D32"/>
<path d="M10.4333 25.4668C8.38331 25.4668 6.41665 24.9168 4.89998 23.9168C3.43331 22.9334 2.58331 21.5167 2.58331 20.0167C2.58331 18.5334 3.43331 17.1167 4.89998 16.1334C6.89998 14.8001 9.71665 14.2834 12.4333 14.7668C13.1166 14.8834 13.5666 15.5334 13.45 16.2167C13.3333 16.9001 12.6833 17.3667 12 17.2334C9.93332 16.8667 7.74998 17.2501 6.28332 18.2167C5.49998 18.7334 5.08331 19.3667 5.08331 20.0167C5.08331 20.6667 5.51665 21.3168 6.28332 21.8334C7.73332 22.8001 9.89998 23.1834 11.95 22.8334C12.6333 22.7167 13.2833 23.1834 13.4 23.8501C13.5166 24.5334 13.0666 25.1834 12.3833 25.3001C11.7333 25.4167 11.0833 25.4668 10.4333 25.4668Z" fill="#292D32"/>
<path d="M20.4997 25.6334C20.4497 25.6334 20.4164 25.6334 20.3664 25.6334H20.283C17.133 25.5334 14.783 23.1001 14.783 20.1001C14.783 17.0334 17.283 14.55 20.333 14.55C23.383 14.55 25.883 17.0501 25.883 20.1001C25.8664 23.1167 23.5164 25.5501 20.5164 25.6501C20.5164 25.6334 20.5164 25.6334 20.4997 25.6334ZM20.333 17.0334C18.6497 17.0334 17.283 18.4001 17.283 20.0834C17.283 21.7334 18.5664 23.0667 20.2164 23.1334C20.233 23.1167 20.3664 23.1167 20.5164 23.1334C22.133 23.0501 23.383 21.7167 23.3997 20.0834C23.3997 18.4167 22.033 17.0334 20.333 17.0334Z" fill="#292D32"/>
<path d="M20.4997 37.9332C18.4997 37.9332 16.4997 37.4166 14.9497 36.3666C13.483 35.3832 12.633 33.9832 12.633 32.4832C12.633 30.9999 13.4663 29.5665 14.9497 28.5832C18.0663 26.5165 22.9497 26.5165 26.0497 28.5832C27.5163 29.5665 28.3663 30.9665 28.3663 32.4665C28.3663 33.9499 27.533 35.3832 26.0497 36.3666C24.4997 37.3999 22.4997 37.9332 20.4997 37.9332ZM16.333 30.6832C15.5497 31.1999 15.133 31.8499 15.133 32.4999C15.133 33.1499 15.5663 33.7832 16.333 34.2999C18.583 35.8165 22.3997 35.8165 24.6497 34.2999C25.433 33.7832 25.8497 33.1332 25.8497 32.4832C25.8497 31.8332 25.4163 31.1999 24.6497 30.6832C22.4163 29.1666 18.5997 29.1832 16.333 30.6832Z" fill="#292D32"/>
</svg>
