<svg width="41" height="40" viewBox="0 0 41 40" fill="none" xmlns="http://www.w3.org/2000/svg">
<path d="M20.766 19.3666C20.716 19.3666 20.6827 19.3666 20.6327 19.3666C20.5494 19.3499 20.4327 19.3499 20.3327 19.3666C15.4994 19.2166 11.8494 15.4166 11.8494 10.7333C11.8494 5.96659 15.7327 2.08325 20.4994 2.08325C25.266 2.08325 29.1494 5.96659 29.1494 10.7333C29.1327 15.4166 25.466 19.2166 20.816 19.3666C20.7994 19.3666 20.7827 19.3666 20.766 19.3666ZM20.4994 4.58325C17.116 4.58325 14.3494 7.34992 14.3494 10.7333C14.3494 14.0666 16.9494 16.7499 20.266 16.8666C20.3494 16.8499 20.5827 16.8499 20.7994 16.8666C24.066 16.7166 26.6327 14.0333 26.6494 10.7333C26.6494 7.34992 23.8827 4.58325 20.4994 4.58325Z" fill="#292D32"/>
<path d="M20.7827 37.5834C17.516 37.5834 14.2327 36.7501 11.7493 35.0834C9.43268 33.5501 8.16602 31.4501 8.16602 29.1667C8.16602 26.8834 9.43268 24.7667 11.7493 23.2167C16.7493 19.9001 24.8493 19.9001 29.816 23.2167C32.116 24.7501 33.3993 26.8501 33.3993 29.1334C33.3993 31.4167 32.1327 33.5334 29.816 35.0834C27.316 36.7501 24.0493 37.5834 20.7827 37.5834ZM13.1327 25.3167C11.5327 26.3834 10.666 27.7501 10.666 29.1834C10.666 30.6001 11.5493 31.9667 13.1327 33.0167C17.2827 35.8001 24.2827 35.8001 28.4327 33.0167C30.0327 31.9501 30.8993 30.5834 30.8993 29.1501C30.8993 27.7334 30.016 26.3667 28.4327 25.3167C24.2827 22.5501 17.2827 22.5501 13.1327 25.3167Z" fill="#292D32"/>
</svg>
