<svg width="33" height="32" viewBox="0 0 33 32" fill="none" xmlns="http://www.w3.org/2000/svg">
<path d="M27.7268 16.2933C27.1801 16.2933 26.7268 15.84 26.7268 15.2933V10.8667C26.7268 9.21337 25.3801 7.8667 23.7268 7.8667H5.27344C4.72677 7.8667 4.27344 7.41337 4.27344 6.8667C4.27344 6.32003 4.72677 5.8667 5.27344 5.8667H23.7268C26.4868 5.8667 28.7268 8.1067 28.7268 10.8667V15.2933C28.7268 15.8533 28.2735 16.2933 27.7268 16.2933Z" fill="#292D32"/>
<path d="M9.48678 12.0933C9.23344 12.0933 8.98011 11.9999 8.78011 11.7999L4.56677 7.58663C4.38011 7.39996 4.27344 7.14659 4.27344 6.87993C4.27344 6.61326 4.38011 6.35997 4.56677 6.1733L8.78011 1.95992C9.16678 1.57326 9.80677 1.57326 10.1934 1.95992C10.5801 2.34659 10.5801 2.98667 10.1934 3.37333L6.68681 6.87993L10.1934 10.3866C10.5801 10.7733 10.5801 11.4133 10.1934 11.7999C9.99344 11.9866 9.74011 12.0933 9.48678 12.0933Z" fill="#292D32"/>
<path d="M27.7268 26.12H9.27344C6.51344 26.12 4.27344 23.88 4.27344 21.12V16.6934C4.27344 16.1467 4.72677 15.6934 5.27344 15.6934C5.8201 15.6934 6.27344 16.1467 6.27344 16.6934V21.12C6.27344 22.7734 7.6201 24.12 9.27344 24.12H27.7268C28.2735 24.12 28.7268 24.5734 28.7268 25.12C28.7268 25.6667 28.2735 26.12 27.7268 26.12Z" fill="#292D32"/>
<path d="M23.5136 30.3332C23.2603 30.3332 23.0069 30.2399 22.8069 30.0399C22.4203 29.6533 22.4203 29.0132 22.8069 28.6265L26.3136 25.1199L22.8069 21.6132C22.4203 21.2266 22.4203 20.5866 22.8069 20.1999C23.1936 19.8132 23.8336 19.8132 24.2203 20.1999L28.4336 24.4132C28.6203 24.5999 28.7269 24.8532 28.7269 25.1199C28.7269 25.3866 28.6203 25.6399 28.4336 25.8265L24.2203 30.0399C24.0336 30.2399 23.7803 30.3332 23.5136 30.3332Z" fill="#292D32"/>
</svg>
