<svg width="33" height="32" viewBox="0 0 33 32" fill="none" xmlns="http://www.w3.org/2000/svg">
<path d="M27.9933 17.4266C27.4867 17.4266 27.06 17.0399 26.9933 16.5332C26.6733 13.5199 25.0467 10.7866 22.54 9.05322C22.0867 8.73322 21.98 8.11989 22.2867 7.66656C22.6067 7.21322 23.2333 7.10656 23.6733 7.41322C26.66 9.47989 28.58 12.7332 28.9667 16.3199C29.02 16.8666 28.6333 17.3599 28.0733 17.4266C28.06 17.4266 28.02 17.4266 27.9933 17.4266Z" fill="#292D32"/>
<path d="M5.15333 17.4934C5.11333 17.4934 5.08666 17.4934 5.04666 17.4934C4.5 17.4267 4.1 16.9334 4.15333 16.3867C4.51333 12.8 6.42 9.56002 9.36666 7.46668C9.82 7.14668 10.4467 7.25335 10.7667 7.70669C11.0867 8.16002 10.98 8.78668 10.5267 9.10668C8.04666 10.8534 6.44666 13.5867 6.14 16.6C6.1 17.1067 5.66 17.4934 5.15333 17.4934Z" fill="#292D32"/>
<path d="M16.58 30.1467C14.6067 30.1467 12.7267 29.6934 10.9667 28.8134C10.4733 28.56 10.2733 27.96 10.5267 27.4667C10.78 26.9734 11.38 26.7734 11.8733 27.0267C14.7533 28.48 18.22 28.5067 21.1267 27.1067C21.62 26.8667 22.22 27.08 22.46 27.5734C22.7 28.0667 22.4867 28.6667 21.9933 28.9067C20.2867 29.7334 18.4733 30.1467 16.58 30.1467Z" fill="#292D32"/>
<path d="M16.58 11.2534C13.98 11.2534 11.8733 9.14675 11.8733 6.54675C11.8733 3.94675 13.98 1.84009 16.58 1.84009C19.18 1.84009 21.2867 3.94675 21.2867 6.54675C21.2867 9.14675 19.1667 11.2534 16.58 11.2534ZM16.58 3.85342C15.0867 3.85342 13.8733 5.06675 13.8733 6.56009C13.8733 8.05342 15.0867 9.26675 16.58 9.26675C18.0733 9.26675 19.2867 8.05342 19.2867 6.56009C19.2867 5.06675 18.06 3.85342 16.58 3.85342Z" fill="#292D32"/>
<path d="M6.94 27.5601C4.34 27.5601 2.23334 25.4534 2.23334 22.8534C2.23334 20.2667 4.34 18.1467 6.94 18.1467C9.54 18.1467 11.6467 20.2534 11.6467 22.8534C11.6467 25.4401 9.54 27.5601 6.94 27.5601ZM6.94 20.1467C5.44667 20.1467 4.23334 21.3601 4.23334 22.8534C4.23334 24.3467 5.44667 25.5601 6.94 25.5601C8.43334 25.5601 9.64667 24.3467 9.64667 22.8534C9.64667 21.3601 8.43334 20.1467 6.94 20.1467Z" fill="#292D32"/>
<path d="M26.06 27.5601C23.46 27.5601 21.3533 25.4534 21.3533 22.8534C21.3533 20.2667 23.46 18.1467 26.06 18.1467C28.66 18.1467 30.7667 20.2534 30.7667 22.8534C30.7533 25.4401 28.6467 27.5601 26.06 27.5601ZM26.06 20.1467C24.5667 20.1467 23.3533 21.3601 23.3533 22.8534C23.3533 24.3467 24.5667 25.5601 26.06 25.5601C27.5533 25.5601 28.7667 24.3467 28.7667 22.8534C28.7533 21.3601 27.5533 20.1467 26.06 20.1467Z" fill="#292D32"/>
</svg>
