<svg width="41" height="40" viewBox="0 0 41 40" fill="none" xmlns="http://www.w3.org/2000/svg">
<path d="M10.5 24.8166C9.81667 24.8166 9.25 24.2499 9.25 23.5666V16.4165C9.25 15.7332 9.81667 15.1665 10.5 15.1665C11.1833 15.1665 11.75 15.7332 11.75 16.4165V23.5666C11.75 24.2666 11.1833 24.8166 10.5 24.8166Z" fill="#EA4335"/>
<path d="M15.5 27.1998C14.8167 27.1998 14.25 26.6332 14.25 25.9498V14.0498C14.25 13.3665 14.8167 12.7998 15.5 12.7998C16.1833 12.7998 16.75 13.3665 16.75 14.0498V25.9498C16.75 26.6498 16.1833 27.1998 15.5 27.1998Z" fill="#EA4335"/>
<path d="M20.5 29.5834C19.8167 29.5834 19.25 29.0167 19.25 28.3334V11.6667C19.25 10.9834 19.8167 10.4167 20.5 10.4167C21.1833 10.4167 21.75 10.9834 21.75 11.6667V28.3334C21.75 29.0167 21.1833 29.5834 20.5 29.5834Z" fill="#EA4335"/>
<path d="M25.5 27.1998C24.8167 27.1998 24.25 26.6332 24.25 25.9498V14.0498C24.25 13.3665 24.8167 12.7998 25.5 12.7998C26.1833 12.7998 26.75 13.3665 26.75 14.0498V25.9498C26.75 26.6498 26.1833 27.1998 25.5 27.1998Z" fill="#EA4335"/>
<path d="M30.5 24.8166C29.8167 24.8166 29.25 24.2499 29.25 23.5666V16.4165C29.25 15.7332 29.8167 15.1665 30.5 15.1665C31.1833 15.1665 31.75 15.7332 31.75 16.4165V23.5666C31.75 24.2666 31.1833 24.8166 30.5 24.8166Z" fill="#EA4335"/>
<path d="M25.5 37.9166H15.5C6.44998 37.9166 2.58331 34.0499 2.58331 24.9999V14.9999C2.58331 5.94992 6.44998 2.08325 15.5 2.08325H25.5C34.55 2.08325 38.4166 5.94992 38.4166 14.9999V24.9999C38.4166 34.0499 34.55 37.9166 25.5 37.9166ZM15.5 4.58325C7.81665 4.58325 5.08331 7.31659 5.08331 14.9999V24.9999C5.08331 32.6833 7.81665 35.4166 15.5 35.4166H25.5C33.1833 35.4166 35.9166 32.6833 35.9166 24.9999V14.9999C35.9166 7.31659 33.1833 4.58325 25.5 4.58325H15.5Z" fill="#EA4335"/>
</svg>
