<svg width="32" height="32" viewBox="0 0 32 32" fill="none" xmlns="http://www.w3.org/2000/svg">
<path d="M21.5867 2.66675H10.4133C5.55999 2.66675 2.66666 5.56008 2.66666 10.4134V21.5734C2.66666 26.4401 5.55999 29.3334 10.4133 29.3334H21.5733C26.4267 29.3334 29.32 26.4401 29.32 21.5868V10.4134C29.3333 5.56008 26.44 2.66675 21.5867 2.66675ZM8.99999 18.8534C8.99999 19.4001 8.54666 19.8534 7.99999 19.8534C7.45332 19.8534 6.99999 19.4001 6.99999 18.8534V13.1467C6.99999 12.6001 7.45332 12.1467 7.99999 12.1467C8.54666 12.1467 8.99999 12.6001 8.99999 13.1467V18.8534ZM13 20.7601C13 21.3067 12.5467 21.7601 12 21.7601C11.4533 21.7601 11 21.3067 11 20.7601V11.2401C11 10.6934 11.4533 10.2401 12 10.2401C12.5467 10.2401 13 10.6934 13 11.2401V20.7601ZM17 22.6667C17 23.2134 16.5467 23.6667 16 23.6667C15.4533 23.6667 15 23.2134 15 22.6667V9.33342C15 8.78675 15.4533 8.33342 16 8.33342C16.5467 8.33342 17 8.78675 17 9.33342V22.6667ZM21 20.7601C21 21.3067 20.5467 21.7601 20 21.7601C19.4533 21.7601 19 21.3067 19 20.7601V11.2401C19 10.6934 19.4533 10.2401 20 10.2401C20.5467 10.2401 21 10.6934 21 11.2401V20.7601ZM25 18.8534C25 19.4001 24.5467 19.8534 24 19.8534C23.4533 19.8534 23 19.4001 23 18.8534V13.1467C23 12.6001 23.4533 12.1467 24 12.1467C24.5467 12.1467 25 12.6001 25 13.1467V18.8534Z" fill="#008080"/>
</svg>
