<svg width="40" height="40" viewBox="0 0 40 40" fill="none" xmlns="http://www.w3.org/2000/svg">
<path d="M35.75 22.7332V24.3999C35.75 24.8499 35.4 25.2166 34.9333 25.2332H32.5C31.6167 25.2332 30.8167 24.5832 30.75 23.7166C30.7 23.1999 30.9 22.7166 31.2333 22.3832C31.5333 22.0666 31.95 21.8999 32.4 21.8999H34.9167C35.4 21.9166 35.75 22.2832 35.75 22.7332Z" fill="#008080"/>
<path d="M29.9833 21.1501C29.15 21.9667 28.75 23.1834 29.0833 24.4501C29.5166 26.0001 31.0333 26.9834 32.6333 26.9834H34.0833C35 26.9834 35.75 27.7334 35.75 28.6501V28.9667C35.75 32.4167 32.9333 35.2334 29.4833 35.2334H10.35C6.89998 35.2334 4.08331 32.4167 4.08331 28.9667V17.7501C4.08331 15.7001 5.06665 13.8834 6.58331 12.7501C7.63331 11.9501 8.93331 11.4834 10.35 11.4834H29.4833C32.9333 11.4834 35.75 14.3001 35.75 17.7501V18.4834C35.75 19.4001 35 20.1501 34.0833 20.1501H32.3833C31.45 20.1501 30.6 20.5167 29.9833 21.1501Z" fill="#008080"/>
<path d="M27 8.03325C27.45 8.48325 27.0667 9.18325 26.4334 9.18325L13.6334 9.16658C12.9 9.16658 12.5167 8.26659 13.05 7.74992L15.75 5.03325C18.0333 2.76659 21.7333 2.76659 24.0167 5.03325L26.9334 7.98325C26.95 7.99992 26.9834 8.01659 27 8.03325Z" fill="#008080"/>
</svg>
